<svg width="29" height="24" viewBox="0 0 29 24" fill="none" xmlns="http://www.w3.org/2000/svg">
<path d="M25.2374 0.000854492H4.27602C3.27811 0.000854492 2.32109 0.397266 1.61547 1.10289C0.909839 1.80852 0.513428 2.76554 0.513428 3.76345V20.2382C0.513428 21.2361 0.909839 22.1932 1.61547 22.8988C2.32109 23.6044 3.27811 24.0008 4.27602 24.0008H25.2374C26.2353 24.0008 27.1924 23.6044 27.898 22.8988C28.6037 22.1932 29.0001 21.2361 29.0001 20.2382V3.76345C29.0001 2.76554 28.6037 1.80852 27.898 1.10289C27.1924 0.397266 26.2353 0.000854492 25.2374 0.000854492ZM4.27602 2.37474H25.2374C25.4213 2.37474 25.6036 2.41092 25.7735 2.48131C25.9434 2.5517 26.0978 2.65487 26.2279 2.78493C26.3579 2.91498 26.461 3.06938 26.5314 3.2393C26.6018 3.40923 26.6381 3.5914 26.6381 3.77533V5.24713L14.7686 13.0216L2.82798 5.15215V3.77533C2.82627 3.58634 2.8628 3.39894 2.93542 3.22445C3.00804 3.04997 3.11526 2.89197 3.25056 2.76001C3.38585 2.62804 3.54644 2.52486 3.72268 2.45661C3.89892 2.38835 4.08713 2.35645 4.27602 2.36286V2.37474ZM25.2374 21.6507H4.27602C3.90456 21.6507 3.54835 21.5031 3.28569 21.2404C3.02303 20.9778 2.87543 20.6216 2.87543 20.2501V7.9652L14.1633 15.4074C14.3571 15.535 14.5841 15.603 14.8162 15.603C15.0482 15.603 15.2751 15.535 15.4689 15.4074L26.6381 8.06018V20.2382C26.6381 20.4222 26.6018 20.6043 26.5314 20.7742C26.461 20.9441 26.3579 21.0986 26.2279 21.2286C26.0978 21.3587 25.9434 21.4618 25.7735 21.5322C25.6036 21.6026 25.4213 21.6388 25.2374 21.6388V21.6507Z" fill="black"/>
</svg>
