<svg width="25" height="25" viewBox="0 0 25 25" fill="none" xmlns="http://www.w3.org/2000/svg">
<path d="M12.4512 5.59104C10.7964 5.54091 9.21946 6.16405 8.01193 7.34013C7.39661 7.94257 6.90729 8.66205 6.57259 9.45648C6.23788 10.2509 6.06453 11.1043 6.06267 11.9668C6.06452 13.6573 6.73488 15.278 7.92666 16.4734C9.11844 17.6688 10.7343 18.3412 12.4197 18.343C13.2521 18.3454 14.0766 18.1812 14.8449 17.8599C15.6132 17.5386 16.3098 17.0668 16.894 16.4721C18.0732 15.2768 18.7475 13.6716 18.7768 11.9903C18.8153 10.2152 18.2705 8.67113 17.2014 7.52863C16.0733 6.31845 14.4305 5.64919 12.4512 5.59104ZM16.6351 11.9437C16.5851 14.3275 14.7318 16.1949 12.4197 16.1949C11.3022 16.1936 10.2308 15.7476 9.44065 14.955C8.65048 14.1624 8.20604 13.0877 8.20485 11.9668C8.20603 11.3917 8.32157 10.8226 8.5447 10.2929C8.76784 9.76317 9.09409 9.2834 9.50435 8.88168C10.2419 8.15064 11.2364 7.7396 12.2733 7.73718C12.3116 7.73718 12.3501 7.73718 12.3887 7.73718C13.7852 7.77828 14.9088 8.21242 15.6375 8.99347C16.3167 9.72189 16.6611 10.7411 16.6351 11.9437ZM20.4132 5.41107C20.4131 5.70513 20.326 5.99256 20.1631 6.23701C20.0001 6.48147 19.7686 6.67197 19.4977 6.78443C19.2268 6.89689 18.9288 6.92627 18.6412 6.86884C18.3537 6.81141 18.0896 6.66976 17.8823 6.46179C17.6751 6.25382 17.5339 5.98888 17.4768 5.70046C17.4196 5.41205 17.449 5.11311 17.5612 4.84144C17.6734 4.56977 17.8634 4.33758 18.1072 4.17422C18.351 4.01086 18.6376 3.92367 18.9307 3.92367C19.1255 3.92367 19.3183 3.96214 19.4982 4.0369C19.678 4.11165 19.8415 4.22122 19.9792 4.35935C20.1168 4.49747 20.226 4.66145 20.3005 4.8419C20.3749 5.02236 20.4132 5.21576 20.4132 5.41107ZM17.2264 0.000366211H7.61308C3.84452 0.000366211 0.778198 3.07544 0.778198 6.85586V17.1449C0.778198 20.9248 3.84302 24.0014 7.61308 24.0014H17.2264C20.9954 24.0014 24.0618 20.9258 24.0618 17.1459V6.85636C24.0618 3.07544 20.9954 0.000366211 17.2264 0.000366211ZM22.3089 17.1454C22.3072 18.4968 21.7712 19.7925 20.8184 20.748C19.8656 21.7036 18.5738 22.2412 17.2264 22.2428H7.61308C6.26563 22.2412 4.97384 21.7035 4.0211 20.7478C3.06836 19.7921 2.53248 18.4964 2.53103 17.1449V6.85636C2.53235 5.50477 3.06817 4.2089 4.02093 3.25308C4.97368 2.29727 6.26555 1.75957 7.61308 1.75798H17.2264C18.574 1.75957 19.8659 2.29725 20.8187 3.25305C21.7716 4.20885 22.3075 5.50472 22.3089 6.85636V17.1454Z" fill="black"/>
</svg>
