<svg width="30" height="24" viewBox="0 0 30 24" fill="none" xmlns="http://www.w3.org/2000/svg">
<path d="M9.52908 24.0005C11.7978 24.016 14.0469 23.5806 16.146 22.7196C18.245 21.8585 20.152 20.589 21.7562 18.9848C23.3605 17.3805 24.63 15.4735 25.491 13.3745C26.352 11.2755 26.7874 9.02632 26.7719 6.75763C26.7719 6.48909 26.7719 6.23398 26.7545 5.9735C27.9406 5.11534 28.9645 4.0528 29.7782 2.83563C28.6724 3.32607 27.4992 3.64786 26.2979 3.79029C27.5643 3.03193 28.5116 1.83886 28.9632 0.433561C27.774 1.14155 26.4725 1.64106 25.115 1.91052C24.2013 0.939198 22.9929 0.296058 21.6768 0.0805765C20.3608 -0.134905 19.0104 0.0892898 17.8345 0.718475C16.6587 1.34766 15.723 2.34677 15.1721 3.56125C14.6212 4.77573 14.4859 6.1379 14.7871 7.43704C12.3781 7.31582 10.0215 6.68944 7.87033 5.59856C5.71911 4.50768 3.8213 2.97668 2.30005 1.10491C1.52511 2.43957 1.28813 4.01946 1.63738 5.52275C1.98663 7.02603 2.89584 8.33963 4.1798 9.19596C3.21746 9.16637 2.27627 8.9062 1.43535 8.43733C1.43535 8.46284 1.43535 8.48836 1.43535 8.51522C1.43579 9.91445 1.92014 11.2705 2.80626 12.3533C3.69239 13.4362 4.92576 14.1793 6.29723 14.4566C5.40498 14.6997 4.46888 14.7351 3.56083 14.56C3.94803 15.7643 4.70197 16.8175 5.71719 17.5722C6.73241 18.327 7.95815 18.7455 9.22295 18.7693C7.07606 20.4541 4.42487 21.3678 1.69583 21.3634C1.20895 21.3636 0.722496 21.3349 0.239014 21.2775C3.01026 23.0576 6.23534 24.0025 9.52908 23.9991" fill="#222222"/>
</svg>
